{"title":"The.Taking.of.Tiger.Mountain.2014.720p.BluRay.x264-WiKi","uid":11952744,"size":8597582066,"categoryP":"video","categoryS":"hd___movies","magnet":"?xt=urn:btih:3c8b475deb0e2f40e92320f9ecb52df01bf7c5a7&amp;dn=The.Taking.of.Tiger.Mountain.2014.720p.BluRay.x264-WiKi&amp;tr=udp%3A%2F%2Ftracker.openbittorrent.com%3A80&amp;tr=udp%3A%2F%2Fopen.demonii.com%3A1337&amp;tr=udp%3A%2F%2Ftracker.coppersurfer.tk%3A6969&amp;tr=udp%3A%2F%2Fexodus.desync.com%3A6969","seeders":0,"leechers":1,"uploader":"vickey1992","files":4,"time":1432235446,"description":"NAME.................: The Taking of Tiger Mountain\n        GENRE................: Adventure\n        RATiNG...............: 6.8/10 from 750 users\n        iMDB.................: http://www.imdb.com/title/tt3950078\n        RELEASE DATE.........: 2015-05-20\n        ENCODE BY............: Jubowo @ WiKi\n        RUNTiME..............: 2h:22m:41s\n        FiLE SiZE............: 7.95 GiB\n        ViDEO CODEC..........: x264 @ 7336 Kbps\n        AUDiO CODEC..........: Mandarin DD 5.1 @ 640 Kbps\n        FRAMERATE............: 24 fps\n        RESOLUTiON...........: 1280x690\n        SOURCE...............: 1080p Blu-ray AVC DTS-HD MA 5.1-TTG\n        SUBTiTLES............: CHS_CHT\n\nVideo\nID                                       : 1\nFormat                                   : AVC\nFormat/Info                              : Advanced Video Codec\nFormat profile                           : &lt;a class=&quot;__cf_email__&quot; href=&quot;/cdn-cgi/l/email-protection&quot; data-cfemail=&quot;b1f9d8d6d9f1fd859f80&quot;&gt;[email&amp;#160;protected]&lt;/a&gt;&lt;script data-cfhash='f9e31' type=&quot;text/javascript&quot;&gt;\n/* &lt;![CDATA[ */!function(){try{var t=&quot;currentScript&quot;in document?document.currentScript:function(){for(var t=document.getElementsByTagName(&quot;script&quot;),e=t.length;e--;)if(t[e].getAttribute(&quot;data-cfhash&quot;))return t[e]}();if(t&amp;&amp;t.previousSibling){var e,r,n,i,c=t.previousSibling,a=c.getAttribute(&quot;data-cfemail&quot;);if(a){for(e=&quot;&quot;,r=parseInt(a.substr(0,2),16),n=2;a.length-n;n+=2)i=parseInt(a.substr(n,2),16)^r,e+=String.fromCharCode(i);e=document.createTextNode(e),c.parentNode.replaceChild(e,c)}t.parentNode.removeChild(t);}}catch(u){}}()/* ]]&gt; */&lt;/script&gt;\nFormat settings, CABAC                   : Yes\nFormat settings, ReFrames                : 9 frames\nCodec ID                                 : V_MPEG4/ISO/AVC\nDuration                                 : 2h 22mn\nBit rate                                 : 7 336 Kbps\nWidth                                    : 1 280 pixels\nHeight                                   : 690 pixels\nDisplay aspect ratio                     : 1.85:1\nFrame rate mode                          : Constant\nFrame rate                               : 24.000 fps\nColor space                              : YUV\nChroma subsampling                       : 4:2:0\nBit depth                                : 8 bits\nScan type                                : Progressive\nBits/(Pixel*Frame)                       : 0.346\nStream size                              : 7.15 GiB (90%)\nWriting library                          : x264 core 129 r2245+704+36 8e61944 tMod+MixAQ [8-bit@4:2:0 X86_64]\nEncoding settings                        : cabac=1 / ref=9 / deblock=1:-3:-3 / analyse=0x3:0x133 / me=umh / subme=11 / psy=1 / fade_compensate=0.00 / psy_rd=1.05:0.10 / mixed_ref=1 / me_range=32 / chroma_me=1 / trellis=2 / 8x8dct=1 / cqm=0 / deadzone=21,11 / fast_pskip=0 / chroma_qp_offset=-3 / threads=18 / lookahead_threads=3 / sliced_threads=0 / nr=0 / decimate=0 / interlaced=0 / bluray_compat=0 / constrained_intra=0 / fgo=0 / bframes=10 / b_pyramid=2 / b_adapt=2 / b_bias=0 / direct=3 / weightb=1 / open_gop=0 / weightp=2 / keyint=250 / keyint_min=24 / scenecut=40 / intra_refresh=0 / rc_lookahead=80 / rc=2pass / mbtree=1 / bitrate=7336 / ratetol=1.0 / qcomp=0.70 / qpmin=0 / qpmax=69 / qpstep=4 / cplxblur=20.0 / qblur=0.5 / ip_ratio=1.40 / aq=1 / aq-strength=0.85 / aq-sensitivity=10.00 / aq-ifactor=1.00 / aq-pfactor=1.00 / aq-bfactor=1.00 / aq2=0\nLanguage                                 : Chinese\nDefault                                  : Yes\nForced                                   : No\nMatrix coefficients                      : BT.709\nColor range                              : Limited\nDURATION                                 : 02:22:41.250000000\nNUMBER_OF_FRAMES                         : 205470\nNUMBER_OF_BYTES                          : 7846858025\n_STATISTICS_WRITING_APP                  : mkvmerge v7.9.0 ('Birds') 64bit\n_STATISTICS_WRITING_DATE_UTC             : 2015-05-20 01:27:04\n_STATISTICS_TAGS                         : BPS DURATION NUMBER_OF_FRAMES NUMBER_OF_BYTES\n\nAudio\nID                                       : 2\nFormat                                   : AC-3\nFormat/Info                              : Audio Coding 3\nMode extension                           : CM (complete main)\nFormat settings, Endianness              : Big\nCodec ID                                 : A_AC3\nDuration                                 : 2h 22mn\nBit rate mode                            : Constant\nBit rate                                 : 640 Kbps\nChannel(s)                               : 6 channels\nChannel positions                        : Front: L C R, Side: L R, LFE\nSampling rate                            : 48.0 KHz\nBit depth                                : 16 bits\nCompression mode                         : Lossy\nStream size                              : 653 MiB (8%)\nLanguage                                 : Chinese\nDefault                                  : Yes\nForced                                   : No\n\nText #1\nID                                       : 3\nFormat                                   : UTF-8\nCodec ID                                 : S_TEXT/UTF8\nCodec ID/Info                            : UTF-8 Plain Text\nTitle                                    : Simplified\nLanguage                                 : Chinese\nDefault                                  : Yes\nForced                                   : No\n\nText #2\nID                                       : 4\nFormat                                   : UTF-8\nCodec ID                                 : S_TEXT/UTF8\nCodec ID/Info                            : UTF-8 Plain Text\nTitle                                    : Traditional\nLanguage                                 : Chinese\nDefault                                  : No\nForced                                   : No\n\nMenu\n00:00:00.000                             : en:00:00:00.000\n00:10:26.958                             : en:00:10:26.958\n00:21:32.667                             : en:00:21:32.667\n00:27:25.500                             : en:00:27:25.500\n00:37:25.458                             : en:00:37:25.458\n00:50:17.375                             : en:00:50:17.375\n00:57:28.024                             : en:00:57:28.024\n01:04:27.833                             : en:01:04:27.833\n01:12:00.958                             : en:01:12:00.958\n01:20:20.375                             : en:01:20:20.375\n01:30:42.667                             : en:01:30:42.667\n01:36:30.125                             : en:01:36:30.125\n01:45:57.583                             : en:01:45:57.583\n01:51:57.500                             : en:01:51:57.500\n01:57:50.250                             : en:01:57:50.250\n02:08:53.666                             : en:02:08:53.666","torrent":{"xt":"urn:btih:3c8b475deb0e2f40e92320f9ecb52df01bf7c5a7","amp;dn":"The.Taking.of.Tiger.Mountain.2014.720p.BluRay.x264-WiKi","amp;tr":["udp%3A%2F%2Ftracker.openbittorrent.com%3A80","udp%3A%2F%2Fopen.demonii.com%3A1337","udp%3A%2F%2Ftracker.coppersurfer.tk%3A6969","udp%3A%2F%2Fexodus.desync.com%3A6969"],"infoHash":"3c8b475deb0e2f40e92320f9ecb52df01bf7c5a7","infoHashBuffer":{"type":"Buffer","data":[60,139,71,93,235,14,47,64,233,35,32,249,236,181,45,240,27,247,197,167]},"announce":[],"urlList":[]}}